HIERARCHY
ROOT hip
{
  OFFSET 0 0 0
  CHANNELS 6 Xposition Yposition Zposition Zrotation Yrotation Xrotation
  JOINT abdomen
  {
    OFFSET 0 20.6881 -0.73152
    CHANNELS 3 Zrotation Xrotation Yrotation
    JOINT chest
    {
      OFFSET 0 11.7043 -0.48768
      CHANNELS 3 Zrotation Xrotation Yrotation
      JOINT neck
      {
        OFFSET 0 22.1894 -2.19456
        CHANNELS 3 Zrotation Xrotation Yrotation
        JOINT head
        {
          OFFSET -0.24384 7.07133 1.2192
          CHANNELS 3 Zrotation Xrotation Yrotation
          JOINT leftEye
          {
            OFFSET 4.14528 8.04674 8.04672
            CHANNELS 3 Zrotation Xrotation Yrotation
            End Site
            {
              OFFSET 1 0 0
            }
          }
          JOINT rightEye
          {
            OFFSET -3.6576 8.04674 8.04672
            CHANNELS 3 Zrotation Xrotation Yrotation
            End Site
            {
              OFFSET 1 0 0
            }
          }
        }
      }
      JOINT rCollar
      {
        OFFSET -2.68224 19.2634 -4.8768
        CHANNELS 3 Zrotation Xrotation Yrotation
        JOINT rShldr
        {
          OFFSET -8.77824 -1.95073 1.46304
          CHANNELS 3 Zrotation Xrotation Yrotation
          JOINT rForeArm
          {
            OFFSET -28.1742 -1.7115 0.48768
            CHANNELS 3 Zrotation Xrotation Yrotation
            JOINT rHand
            {
              OFFSET -22.5879 0.773209 7.07136
              CHANNELS 3 Zrotation Xrotation Yrotation
              JOINT rThumb1
              {
                OFFSET -1.2192 -0.487915 3.41376
                CHANNELS 3 Zrotation Xrotation Yrotation
                JOINT rThumb2
                {
                  OFFSET -3.37035 -0.52449 3.41376
                  CHANNELS 3 Zrotation Xrotation Yrotation
                  End Site
                  {
                    OFFSET -1.78271 -1.18214 1.43049
                  }
                }
              }
              JOINT rIndex1
              {
                OFFSET -7.75947 0.938293 5.60832
                CHANNELS 3 Zrotation Xrotation Yrotation
                JOINT rIndex2
                {
                  OFFSET -2.54057 -0.884171 1.56538
                  CHANNELS 3 Zrotation Xrotation Yrotation
                  End Site
                  {
                    OFFSET -1.62519 -0.234802 1.16502
                  }
                }
              }
              JOINT rMid1
              {
                OFFSET -8.24714 1.18213 3.41376
                CHANNELS 3 Zrotation Xrotation Yrotation
                JOINT rMid2
                {
                  OFFSET -3.10165 -0.590103 1.0647
                  CHANNELS 3 Zrotation Xrotation Yrotation
                  End Site
                  {
                    OFFSET -2.48547 -0.328903 0.83742
                  }
                }
              }
              JOINT rRing1
              {
                OFFSET -8.82822 0.546677 1.51678
                CHANNELS 3 Zrotation Xrotation Yrotation
                JOINT rRing2
                {
                  OFFSET -2.60934 -0.819778 -0.0198488
                  CHANNELS 3 Zrotation Xrotation Yrotation
                  End Site
                  {
                    OFFSET -2.33842 -0.294052 0.168128
                  }
                }
              }
              JOINT rPinky1
              {
                OFFSET -8.27202 -0.0477905 -0.4584
                CHANNELS 3 Zrotation Xrotation Yrotation
                JOINT rPinky2
                {
                  OFFSET -1.82734 -0.647385 -0.700984
                  CHANNELS 3 Zrotation Xrotation Yrotation
                  End Site
                  {
                    OFFSET -1.69225 -0.51767 -0.607171
                  }
                }
              }
            }
          }
        }
      }
      JOINT lCollar
      {
        OFFSET 2.68224 19.2634 -4.8768
        CHANNELS 3 Zrotation Xrotation Yrotation
        JOINT lShldr
        {
          OFFSET 8.77824 -1.95073 1.46304
          CHANNELS 3 Zrotation Xrotation Yrotation
          JOINT lForeArm
          {
            OFFSET 28.1742 -1.7115 0.48768
            CHANNELS 3 Zrotation Xrotation Yrotation
            JOINT lHand
            {
              OFFSET 22.5879 0.773209 7.07136
              CHANNELS 3 Zrotation Xrotation Yrotation
              JOINT lThumb1
              {
                OFFSET 1.2192 -0.487915 3.41376
                CHANNELS 3 Zrotation Xrotation Yrotation
                JOINT lThumb2
                {
                  OFFSET 3.37035 -0.52449 3.41376
                  CHANNELS 3 Zrotation Xrotation Yrotation
                  End Site
                  {
                    OFFSET 1.78271 -1.18214 1.43049
                  }
                }
              }
              JOINT lIndex1
              {
                OFFSET 7.75947 0.938293 5.60832
                CHANNELS 3 Zrotation Xrotation Yrotation
                JOINT lIndex2
                {
                  OFFSET 2.54057 -0.884171 1.56538
                  CHANNELS 3 Zrotation Xrotation Yrotation
                  End Site
                  {
                    OFFSET 1.62519 -0.234802 1.16502
                  }
                }
              }
              JOINT lMid1
              {
                OFFSET 8.24714 1.18213 3.41376
                CHANNELS 3 Zrotation Xrotation Yrotation
                JOINT lMid2
                {
                  OFFSET 3.10165 -0.590103 1.0647
                  CHANNELS 3 Zrotation Xrotation Yrotation
                  End Site
                  {
                    OFFSET 2.48547 -0.328903 0.83742
                  }
                }
              }
              JOINT lRing1
              {
                OFFSET 8.82822 0.546677 1.51678
                CHANNELS 3 Zrotation Xrotation Yrotation
                JOINT lRing2
                {
                  OFFSET 2.60934 -0.819778 -0.0198488
                  CHANNELS 3 Zrotation Xrotation Yrotation
                  End Site
                  {
                    OFFSET 2.33842 -0.294052 0.168128
                  }
                }
              }
              JOINT lPinky1
              {
                OFFSET 8.27202 -0.0477905 -0.4584
                CHANNELS 3 Zrotation Xrotation Yrotation
                JOINT lPinky2
                {
                  OFFSET 1.82734 -0.647385 -0.700984
                  CHANNELS 3 Zrotation Xrotation Yrotation
                  End Site
                  {
                    OFFSET 1.69225 -0.51767 -0.607171
                  }
                }
              }
            }
          }
        }
      }
    }
  }
  JOINT rButtock
  {
    OFFSET -8.77824 4.35084 1.2192
    CHANNELS 3 Zrotation Xrotation Yrotation
    JOINT rThigh
    {
      OFFSET 0 -1.70687 -2.19456
      CHANNELS 3 Zrotation Xrotation Yrotation
      JOINT rShin
      {
        OFFSET 0 -36.8199 0.73152
        CHANNELS 3 Zrotation Xrotation Yrotation
        JOINT rFoot
        {
          OFFSET 0.73152 -45.1104 -5.12064
          CHANNELS 3 Zrotation Xrotation Yrotation
          End Site
          {
            OFFSET -1.1221 -3.69964 12.103
          }
        }
      }
    }
  }
  JOINT lButtock
  {
    OFFSET 8.77824 4.35084 1.2192
    CHANNELS 3 Zrotation Xrotation Yrotation
    JOINT lThigh
    {
      OFFSET 0 -1.70687 -2.19456
      CHANNELS 3 Zrotation Xrotation Yrotation
      JOINT lShin
      {
        OFFSET 0 -36.8199 0.73152
        CHANNELS 3 Zrotation Xrotation Yrotation
        JOINT lFoot
        {
          OFFSET -0.73152 -45.1104 -5.12064
          CHANNELS 3 Zrotation Xrotation Yrotation
          End Site
          {
            OFFSET 1.1221 -3.69964 12.103
          }
        }
      }
    }
  }
}
MOTION
Frames:	5
Frame Time:	0.00833333
-35.0617 80.9016 24.9484 -77.8507 -81.651 80.2464 -6.19321 4.38932 11.096 -7.51991 2.10626 3.05064 0.930582 7.17433 14.1468 -16.1692 17.5054 27.2453 -0.0 0.0 0.0 -0.0 0.0 0.0 -1.21116e-13 -2.25865e-13 -1.25281e-14 74.3586 14.5379 3.40473 -12.6895 -5.94407 22.9524 -0.384814 17.3673 2.51924 -1.48775e-09 -1.92412e-09 2.99411e-10 -2.57209e-09 -3.33271e-09 5.37002e-10 -1.48775e-09 -1.92412e-09 2.99408e-10 7.73091 5.47488 0.417314 -1.48776e-09 -1.92412e-09 2.99414e-10 2.90554 0.965183 0.102902 -1.48775e-09 -1.92412e-09 2.99412e-10 10.2786 0.731801 0.0259123 -1.48776e-09 -1.92412e-09 2.99423e-10 2.22167 -0.733487 -0.20892 -1.2116e-13 -2.25886e-13 -1.27583e-14 -64.2815 -2.7528 -11.3102 13.1288 -6.2721 -23.8183 0.905372 25.9706 -3.9253 -1.52871e-10 -2.64069e-10 -1.01072e-09 -2.82712e-10 -4.46887e-10 -1.74327e-09 -1.52884e-10 -2.64064e-10 -1.0107e-09 -7.73091 5.47488 -0.417314 -1.5287e-10 -2.64068e-10 -1.01072e-09 -2.90554 0.965183 -0.102902 -1.52883e-10 -2.64068e-10 -1.01072e-09 -10.2786 0.731801 -0.0259123 -1.5287e-10 -2.64069e-10 -1.01072e-09 -2.22167 -0.733487 0.20892 -2.03217e-16 0.0 -3.88251e-19 -0.0370526 -18.5399 -8.40408 -1.03092 58.7179 1.28965 1.54288 13.2783 -12.5611 2.03217e-16 0.0 3.88251e-19 10.7369 -30.9051 -9.34496 0.233639 34.1997 -0.250184 -0.913908 -5.39248 -4.77313
-35.6934 80.9276 25.0791 -78.1849 -81.7594 80.5656 -6.3715 4.57121 10.9463 -7.43488 2.05929 2.99778 0.884495 7.17386 14.1599 -16.1806 17.5067 27.2642 -0.0 0.0 0.0 -0.0 0.0 0.0 -1.81269e-13 -2.02742e-13 2.87244e-14 74.5223 14.339 3.26078 -12.6266 -5.89784 22.8293 -0.388916 17.4559 2.53292 -1.3397e-09 -2.07818e-09 1.50796e-09 -2.29884e-09 -3.58114e-09 2.62427e-09 -1.3397e-09 -2.07818e-09 1.50796e-09 7.73091 5.47488 0.417314 -1.33971e-09 -2.07818e-09 1.50796e-09 2.90554 0.965183 0.102902 -1.33969e-09 -2.07817e-09 1.50796e-09 10.2786 0.731801 0.0259123 -1.3397e-09 -2.07817e-09 1.50797e-09 2.22167 -0.733487 -0.20892 -1.81326e-13 -2.02779e-13 2.84759e-14 -64.3943 -2.02515 -11.4923 13.3438 -6.43704 -24.2432 0.86466 25.4275 -3.83115 -5.389e-10 1.11587e-10 -1.1081e-09 -9.51404e-10 2.10696e-10 -1.90278e-09 -5.38913e-10 1.11591e-10 -1.10808e-09 -7.73091 5.47488 -0.417314 -5.389e-10 1.11588e-10 -1.1081e-09 -2.90554 0.965183 -0.102902 -5.38913e-10 1.11589e-10 -1.1081e-09 -10.2786 0.731801 -0.0259123 -5.389e-10 1.11589e-10 -1.1081e-09 -2.22167 -0.733487 0.20892 -2.03217e-16 0.0 -3.88251e-19 -0.512022 -19.4784 -8.79493 -1.07499 59.4175 1.32806 1.6323 13.4612 -13.0269 2.03217e-16 0.0 3.88251e-19 10.4947 -30.5342 -9.34952 0.234783 34.4105 -0.269259 -0.930052 -5.75254 -4.76304
-36.3199 80.9602 25.2017 -78.5518 -81.8628 80.9271 -6.53821 4.74745 10.794 -7.35121 2.01303 2.94472 0.838429 7.16978 14.1728 -16.1928 17.5016 27.2825 -0.0 0.0 0.0 -0.0 0.0 0.0 -1.68903e-13 -1.21076e-13 5.12232e-14 74.6788 14.173 3.12764 -12.5776 -5.86187 22.7338 -0.39179 17.5171 2.5424 -1.13115e-09 -1.54962e-09 1.51746e-09 -1.93702e-09 -2.66483e-09 2.63862e-09 -1.13115e-09 -1.54962e-09 1.51745e-09 7.73091 5.47488 0.417314 -1.13116e-09 -1.54963e-09 1.51746e-09 2.90554 0.965183 0.102902 -1.13114e-09 -1.54962e-09 1.51746e-09 10.2786 0.731801 0.0259123 -1.13115e-09 -1.54962e-09 1.51747e-09 2.22167 -0.733487 -0.20892 -1.68942e-13 -1.21094e-13 5.09463e-14 -64.4982 -1.26352 -11.6583 13.5721 -6.6148 -24.6963 0.826575 24.9058 -3.74149 -7.78816e-10 5.00744e-10 -6.98051e-10 -1.35832e-09 8.8539e-10 -1.18951e-09 -7.78826e-10 5.00747e-10 -6.98034e-10 -7.73091 5.47488 -0.417314 -7.78815e-10 5.00746e-10 -6.98048e-10 -2.90554 0.965183 -0.102902 -7.78827e-10 5.00747e-10 -6.9805e-10 -10.2786 0.731801 -0.0259123 -7.78816e-10 5.00747e-10 -6.98052e-10 -2.22167 -0.733487 0.20892 -2.03217e-16 0.0 -3.88251e-19 -0.969189 -20.4141 -9.17725 -1.11421 60.0094 1.36171 1.69993 13.5433 -13.4957 2.03217e-16 0.0 3.88251e-19 10.2767 -30.1442 -9.34372 0.234861 34.5698 -0.287791 -0.943231 -6.12656 -4.73675
-36.9406 81.0001 25.3162 -78.9573 -81.959 81.337 -6.69557 4.91822 10.6386 -7.26833 1.96687 2.89124 0.792119 7.16237 14.1854 -16.2054 17.4908 27.3002 -0.0 0.0 0.0 -0.0 0.0 0.0 -1.10526e-13 4.85996e-15 6.37384e-14 74.8288 14.0373 3.00486 -12.5423 -5.83618 22.6648 -0.393473 17.5531 2.54797 -8.3791e-10 -5.70572e-10 8.65463e-10 -1.43743e-09 -9.77736e-10 1.50879e-09 -8.37903e-10 -5.70573e-10 8.65449e-10 7.73091 5.47488 0.417314 -8.37913e-10 -5.70581e-10 8.65459e-10 2.90554 0.965183 0.102902 -8.37901e-10 -5.70575e-10 8.65457e-10 10.2786 0.731801 0.0259123 -8.37911e-10 -5.70574e-10 8.65465e-10 2.22167 -0.733487 -0.20892 -1.1053e-13 4.8806e-15 6.34247e-14 -64.5942 -0.464234 -11.8103 13.8131 -6.80472 -25.1788 0.790482 24.3995 -3.65512 -9.44387e-10 9.06173e-10 2.14879e-11 -1.6313e-09 1.58476e-09 5.644e-11 -9.44394e-10 9.06176e-10 2.15031e-11 -7.73091 5.47488 -0.417314 -9.44386e-10 9.06176e-10 2.14911e-11 -2.90554 0.965183 -0.102902 -9.44396e-10 9.06178e-10 2.14886e-11 -10.2786 0.731801 -0.0259123 -9.44388e-10 9.06179e-10 2.14843e-11 -2.22167 -0.733487 0.20892 -2.03217e-16 0.0 -3.88251e-19 -1.41165 -21.3514 -9.55296 -1.1485 60.502 1.39044 1.7438 13.527 -13.9673 2.03217e-16 0.0 3.88251e-19 10.0801 -29.7354 -9.32962 0.233818 34.68 -0.305808 -0.952856 -6.51552 -4.69287
-37.5554 81.0462 25.4225 -79.4045 -82.0483 81.7986 -6.84297 5.0818 10.4811 -7.1864 1.92123 2.83771 0.745782 7.15234 14.1977 -16.2178 17.474 27.3171 -0.0 0.0 0.0 -0.0 0.0 0.0 -3.50531e-14 1.3512e-13 6.79032e-14 74.972 13.9334 2.89118 -12.5201 -5.82007 22.6211 -0.393952 17.5637 2.5496 -6.05427e-10 4.33141e-10 -1.1238e-10 -1.04749e-09 7.46759e-10 -1.83492e-10 -6.05416e-10 4.33138e-10 -1.124e-10 7.73091 5.47488 0.417314 -6.05427e-10 4.3313e-10 -1.12387e-10 2.90554 0.965183 0.102902 -6.05417e-10 4.33133e-10 -1.12388e-10 10.2786 0.731801 0.0259123 -6.05427e-10 4.33136e-10 -1.12381e-10 2.22167 -0.733487 -0.20892 -3.50212e-14 1.35178e-13 6.75604e-14 -64.6837 0.355605 -11.9454 14.0644 -7.00618 -25.6847 0.756715 23.9127 -3.57274 -1.02174e-09 1.14172e-09 6.93177e-10 -1.75274e-09 1.98895e-09 1.21776e-09 -1.02175e-09 1.14172e-09 6.93191e-10 -7.73091 5.47488 -0.417314 -1.02174e-09 1.14172e-09 6.9318e-10 -2.90554 0.965183 -0.102902 -1.02175e-09 1.14173e-09 6.93178e-10 -10.2786 0.731801 -0.0259123 -1.02175e-09 1.14173e-09 6.93171e-10 -2.22167 -0.733487 0.20892 -2.03217e-16 0.0 -3.88251e-19 -1.8379 -22.2777 -9.91693 -1.17576 60.8795 1.4129 1.76286 13.4205 -14.4304 2.03217e-16 0.0 3.88251e-19 9.90239 -29.3094 -9.31046 0.231782 34.7423 -0.323474 -0.959244 -6.90681 -4.63852
